<svg width="60" height="60" viewBox="0 0 60 60" fill="none" xmlns="http://www.w3.org/2000/svg">
<g clip-path="url(#clip0_3_333)">
<g clip-path="url(#clip1_3_333)">
<mask id="mask0_3_333" style="mask-type:luminance" maskUnits="userSpaceOnUse" x="0" y="0" width="60" height="60">
<path d="M60 0H0V60H60V0Z" fill="white"/>
</mask>
<g mask="url(#mask0_3_333)">
<path d="M40.8468 34.001C40.8468 34.001 37.2335 32.2054 36.603 31.987C36.3511 31.8715 36.0794 31.8056 35.8027 31.7929C35.558 31.7981 35.319 31.8682 35.1102 31.9961C34.9014 32.124 34.7303 32.3051 34.6144 32.5208C34.2507 33.0304 33.3725 34.0926 33.0572 34.4566C33.0163 34.5039 32.8181 34.7775 32.7229 34.7775L32.0681 34.5834C29.2248 33.1146 26.8039 30.9428 25.0355 28.2744C25.0232 28.2266 25.0232 28.1766 25.0355 28.1288L25.2538 27.8862C25.4596 27.6701 25.6539 27.4433 25.8358 27.2067L26.1268 26.867C26.3663 26.5909 26.5625 26.28 26.7088 25.9449L26.7584 25.7751C26.8838 25.5355 26.8996 25.269 26.8996 24.9986C26.8996 24.7281 26.8341 24.4617 26.7088 24.2221C26.7088 24.0522 25.1325 20.4367 24.987 20.0485C24.599 19.1506 24.0897 18.7139 23.4107 18.7139H23.0227C22.0056 18.7748 21.0095 19.0302 20.0884 19.4661C19.3226 20.082 18.7159 20.873 18.3192 21.7724C17.9225 22.6718 17.7475 23.6534 17.8089 24.6346C17.9624 26.9122 19.0739 29.1624 20.1573 30.8708L20.2339 31.0164C22.6045 34.7793 26.0166 37.772 30.0553 39.6306C31.9158 40.5269 33.9349 41.0465 35.9967 41.1593H36.9667H37.1365C38.0453 40.9971 38.9065 40.6341 39.6574 40.0968C40.4084 39.5595 41.0301 38.8614 41.4773 38.0533C41.941 37.0427 42.0437 35.9034 41.7683 34.826C41.5376 34.476 41.2201 34.1917 40.8468 34.001Z" stroke="black" stroke-width="1.5" stroke-linecap="round" stroke-linejoin="round"/>
<path d="M25.8799 53.8979C29.2213 54.458 32.7643 54.3597 36.0456 53.5156C41.0646 52.2229 45.5378 49.3552 48.8092 45.3331C52.0806 41.3109 53.9781 36.3459 54.2237 31.1659C54.4692 25.9859 53.0498 20.8634 50.1735 16.5495C47.2973 12.2356 43.1155 8.95723 38.2412 7.19498C33.367 5.43274 28.0567 5.27937 23.089 6.75734C18.1213 8.23531 13.7575 11.2669 10.6373 15.4076C7.51713 19.5483 5.80478 24.5803 5.75129 29.7659C5.6978 34.9514 7.306 40.0177 10.3401 44.222C10.4254 44.3252 10.4816 44.4493 10.5029 44.5816C10.5243 44.7138 10.5099 44.8494 10.4613 44.9742L8.03629 51.7927C8.02429 51.8778 8.03395 51.9644 8.06437 52.0447C8.09479 52.125 8.14499 52.1963 8.21031 52.2519C8.27563 52.3076 8.35394 52.3459 8.43799 52.3632C8.52204 52.3805 8.60909 52.3762 8.69106 52.3508L16.0632 50.0699C16.2281 50.0698 16.389 50.1206 16.524 50.2155C19.3513 52.0834 22.5384 53.3379 25.8799 53.8979Z" stroke="black" stroke-width="1.5" stroke-miterlimit="10"/>
</g>
</g>
</g>
<defs>
<clipPath id="clip0_3_333">
<rect width="60" height="60" fill="white"/>
</clipPath>
<clipPath id="clip1_3_333">
<rect width="60" height="60" fill="white"/>
</clipPath>
</defs>
</svg>
