<svg width="64" height="64" viewBox="0 0 64 64" fill="none" xmlns="http://www.w3.org/2000/svg">
<g clip-path="url(#clip0_12_55)">
<g clip-path="url(#clip1_12_55)">
<path fill-rule="evenodd" clip-rule="evenodd" d="M2.75 10.75C2.75 9.64543 3.64543 8.75 4.75 8.75H29.75C30.8546 8.75 31.75 9.64543 31.75 10.75V53.25C31.75 54.3546 30.8546 55.25 29.75 55.25H4.75C3.64543 55.25 2.75 54.3546 2.75 53.25V10.75Z" stroke="black" stroke-width="1.5" stroke-linecap="round" stroke-linejoin="round"/>
<path d="M17.25 55V9" stroke="black" stroke-width="1.5" stroke-linecap="round"/>
<path d="M3 32H32" stroke="black" stroke-width="1.5"/>
<path fill-rule="evenodd" clip-rule="evenodd" d="M21 13.75C21 13.1977 21.4477 12.75 22 12.75H27C27.5523 12.75 28 13.1977 28 13.75V27C28 27.5523 27.5523 28 27 28H22C21.4477 28 21 27.5523 21 27V13.75Z" stroke="black" stroke-width="1.5" stroke-linecap="round" stroke-linejoin="round"/>
<path fill-rule="evenodd" clip-rule="evenodd" d="M37.25 20C35.7312 20 34.5 21.2312 34.5 22.75V53.251C34.5 54.7698 35.7312 56.001 37.25 56.001H59.75C61.2688 56.001 62.5 54.7698 62.5 53.251V22.75C62.5 21.2312 61.2688 20 59.75 20H37.25ZM36 22.75C36 22.0596 36.5596 21.5 37.25 21.5H59.75C60.4404 21.5 61 22.0596 61 22.75V29.2505H36V22.75ZM36 30.7505V53.251C36 53.9414 36.5596 54.501 37.25 54.501H59.75C60.4404 54.501 61 53.9414 61 53.251V30.7505H36ZM48.5 35.3916C44.4959 35.3916 41.25 38.6375 41.25 42.6416C41.25 46.6457 44.4959 49.8916 48.5 49.8916C52.5041 49.8916 55.75 46.6457 55.75 42.6416C55.75 38.6375 52.5041 35.3916 48.5 35.3916ZM39.75 42.6416C39.75 37.8091 43.6675 33.8916 48.5 33.8916C53.3325 33.8916 57.25 37.8091 57.25 42.6416C57.25 47.4741 53.3325 51.3916 48.5 51.3916C43.6675 51.3916 39.75 47.4741 39.75 42.6416ZM48.4989 24.521C47.9292 24.521 47.4668 24.9834 47.4668 25.5531C47.4668 26.1228 47.9292 26.5852 48.4989 26.5852C49.0686 26.5852 49.531 26.1228 49.531 25.5531C49.531 24.9834 49.0686 24.521 48.4989 24.521ZM52.8789 24.7546C52.4647 24.7546 52.1289 25.0904 52.1289 25.5046C52.1289 25.9189 52.4647 26.2546 52.8789 26.2546H57.597C58.0112 26.2546 58.347 25.9189 58.347 25.5046C58.347 25.0904 58.0112 24.7546 57.597 24.7546H52.8789ZM39.4023 24.7547C38.9881 24.7547 38.6523 25.0905 38.6523 25.5047C38.6523 25.9189 38.9881 26.2547 39.4023 26.2547H44.1204C44.5346 26.2547 44.8704 25.9189 44.8704 25.5047C44.8704 25.0905 44.5346 24.7547 44.1204 24.7547H39.4023Z" fill="black"/>
<path d="M52.4609 45.0101C52.2378 44.7322 51.9544 44.5077 51.6318 44.3535C51.3092 44.1992 50.9557 44.1191 50.5976 44.1191C50.2396 44.1191 49.8861 44.1992 49.5635 44.3535C49.2409 44.5077 48.9575 44.7322 48.7344 45.0101C46.698 47.0313 44.5394 44.835 44.5394 44.835" stroke="black" stroke-width="1.3" stroke-linecap="round"/>
<path d="M52.4609 40.891C52.2378 40.6131 51.9544 40.3886 51.6318 40.2343C51.3092 40.0801 50.9557 40 50.5976 40C50.2396 40 49.8861 40.0801 49.5635 40.2343C49.2409 40.3886 48.9575 40.6131 48.7344 40.891C46.698 42.9122 44.5394 40.7158 44.5394 40.7158" stroke="black" stroke-width="1.3" stroke-linecap="round"/>
</g>
</g>
<defs>
<clipPath id="clip0_12_55">
<rect width="64" height="64" fill="white"/>
</clipPath>
<clipPath id="clip1_12_55">
<rect width="64" height="64" fill="white"/>
</clipPath>
</defs>
</svg>
