<svg width="48" height="48" viewBox="0 0 48 48" fill="none" xmlns="http://www.w3.org/2000/svg">
<g clip-path="url(#clip0_3_278)">
<g clip-path="url(#clip1_3_278)">
<path fill-rule="evenodd" clip-rule="evenodd" d="M2 2H2.75H21.25H22V2.75V14.25V15H21.25H2.75H2V14.25V2.75V2ZM3.5 3.5V13.5H20.5V3.5H3.5ZM24 2H24.75H45.25H46V2.75V45.25V46H45.25H24.75H24V45.25V2.75V2ZM25.5 3.5V30H44.5V3.5H25.5ZM25.5 44.5V31.5H44.5V44.5H25.5ZM2.75 19H2V19.75V45.25V46H2.75H21.25H22V45.25V19.75V19H21.25H2.75ZM3.5 44.5V20.5H20.5V44.5H3.5ZM42 34H28V35.5H42V34ZM11 23H13V24.5H11V23ZM28 11V23.5H29.5V11H28ZM8 16H16V17.5H8V16ZM6.5 35C6.5 31.9624 8.96243 29.5 12 29.5C15.0376 29.5 17.5 31.9624 17.5 35C17.5 38.0376 15.0376 40.5 12 40.5C8.96243 40.5 6.5 38.0376 6.5 35ZM12 28C8.13401 28 5 31.134 5 35C5 38.866 8.13401 42 12 42C15.866 42 19 38.866 19 35C19 31.134 15.866 28 12 28Z" fill="black"/>
</g>
</g>
<defs>
<clipPath id="clip0_3_278">
<rect width="48" height="48" fill="white"/>
</clipPath>
<clipPath id="clip1_3_278">
<rect width="48" height="48" fill="white"/>
</clipPath>
</defs>
</svg>
