<svg width="100" height="44" viewBox="0 0 100 44" fill="none" xmlns="http://www.w3.org/2000/svg">
<g clip-path="url(#clip0_3_695)">
<g clip-path="url(#clip1_3_695)">
<mask id="mask0_3_695" style="mask-type:luminance" maskUnits="userSpaceOnUse" x="0" y="0" width="100" height="44">
<path d="M99.1111 0H0V44H99.1111V0Z" fill="white"/>
</mask>
<g mask="url(#mask0_3_695)">
<path d="M59.944 30.5703H73.4551V36.1106H53.4231V7.66104H59.944V30.5703Z" fill="#707070"/>
<path d="M87.7929 25.2645H93.1031V30.2428C92.128 30.6174 90.2164 30.9921 88.4022 30.9921C82.5307 30.9921 80.5782 27.9872 80.5782 21.8849C80.5782 16.0611 82.4369 12.634 88.3031 12.634C91.5729 12.634 93.428 13.6681 94.9667 15.6402L99.0231 11.8834C96.5453 8.32266 92.2222 7.24359 88.1622 7.24359C79.0356 7.23986 74.2369 12.2581 74.2369 21.8362C74.2369 31.3668 78.5733 36.5336 88.1138 36.5336C92.4947 36.5336 96.7769 35.4096 99.1076 33.7623V19.959H87.7929V25.2645Z" fill="#707070"/>
<path d="M37.2582 37.5576C45.7813 28.9661 45.7809 15.036 37.2573 6.44401C28.7337 -2.14802 14.9145 -2.14842 6.39133 6.44312C-2.13184 15.0346 -2.13145 28.9647 6.39222 37.5567C14.9159 46.1489 28.735 46.1489 37.2582 37.5576Z" fill="#A50034"/>
<path d="M27.1637 29.6035H22.7034V12.7104H21.0543V31.2709H22.7071V31.2596H27.1675L27.1637 29.6035Z" fill="white"/>
<path d="M38.2882 22.6994H27.1893V21.0421H39.915C39.9324 21.3631 39.9411 21.684 39.9411 22.0088C39.9411 31.9878 31.8727 40.0759 21.9223 40.0759C11.9719 40.0759 3.90234 31.9915 3.90234 22.0075C3.90234 12.0236 11.9695 3.94043 21.9211 3.94043C22.1837 3.94043 22.4452 3.94584 22.7054 3.95667V5.60151C22.4452 5.58987 22.1846 5.58404 21.9236 5.58404C12.8789 5.58404 5.544 12.9378 5.544 22.0075C5.544 31.0773 12.8776 38.4323 21.9236 38.4323C30.7204 38.4323 37.9066 31.4744 38.287 22.7456L38.2882 22.6994Z" fill="white"/>
<path d="M15.2029 17.711C15.7006 17.7085 16.1863 17.5575 16.5989 17.277C17.0115 16.9965 17.3325 16.5991 17.5212 16.135C17.7099 15.6708 17.7581 15.1606 17.6595 14.6689C17.5609 14.1772 17.32 13.726 16.9673 13.3721C16.6145 13.0183 16.1657 12.7777 15.6774 12.6807C15.1891 12.5838 14.6833 12.6348 14.2238 12.8273C13.7642 13.0198 13.3715 13.3453 13.0953 13.7626C12.8191 14.1798 12.6716 14.6702 12.6716 15.1719C12.6725 15.5062 12.7386 15.837 12.8662 16.1455C12.9939 16.454 13.1806 16.7341 13.4156 16.9699C13.6507 17.2057 13.9295 17.3925 14.2361 17.5196C14.5428 17.6468 14.8713 17.7118 15.2029 17.711Z" fill="white"/>
</g>
</g>
</g>
<defs>
<clipPath id="clip0_3_695">
<rect width="100" height="44" fill="white"/>
</clipPath>
<clipPath id="clip1_3_695">
<rect width="100" height="44" fill="white"/>
</clipPath>
</defs>
</svg>
